<svg version="1" id="cat" xmlns="http://www.w3.org/2000/svg" viewBox="0 0 800 800" aria-labeledby="pixels-title pixels-desc">
  <title id="pixels-title">A cute, gray cat with green eyes.</title>
  <desc id="pixels-desc">Cat illustration by Heather Migliorisi</desc>
  <style>
    .st0{fill:#E4E3E5;} .st1{display:none;fill:#E4E3E5;} .st2{fill:#ADA6AD;} .st3{fill:#D2D0D3;} .st4{fill:#79BF84;} .st5{fill:none;stroke:#E4E3E5;stroke-miterlimit:10;} .st6{fill:#FF88B3;} .st7{fill:#D86694;} .st8{fill:none;stroke:#FF88B3;stroke-width:2;stroke-miterlimit:10;} .st9{fill:none;stroke:#D86694;stroke-miterlimit:10;} .st10{fill:none;stroke:#6C6D6C;stroke-miterlimit:10;} .st11{fill:none;stroke:#222322;stroke-miterlimit:10;} .st12{fill:#2F302F;} .st13{fill:none;stroke:#2F302F;stroke-miterlimit:10;} .st14{fill:#FAFCFA;}
  </style>
  <path id="tail_-_straight" class="st0" d="M545.9 695.9c8 28.2 23.2 42.3 27.2 46.9 21.4 24.1 41.5 40.2 81.1 42.9 39.6 2.7 65.4-14.2 60.8-26.8-4.6-12.6-23.1-9.1-51.3-8.3-35.2.9-66.6-31.3-74.8-63.9-8.2-32.7-7.9-63.8-36.8-85.5-44.1-33-135.6-7.1-159.8-3.4-24.2 3.7-48.4 52.5-9.6 45.1 38.9-7.5 91.4-23.1 123.2-12.7 31.9 10.2 32 37.5 40 65.7z"/>
  <path id="tail_-_curled" class="st1" d="M271.8 730.8c-16.7-6.2-1-28.9 14.4-34.7 16.5-6.2 41.3-2 60.8 18.5 25.9 27.3 77.1 30.7 106.2 6.8 39.1-32.1 22-68.2-8.7-78.1-36.6-11.8-84.4 5.3-123.2 12.7-38.9 7.5-14.6-41.3 9.6-45.1 24.2-3.7 115.8-29.6 159.8 3.4 32.7 24.5 47.2 57.2 28.9 99.6-17.2 39.9-62.5 56-102.9 58.4-32.2 2-70.8-10.6-87.8-25-19.9-16.8-22.6-22-28.8-25.4-8.3-4.4-12.3 14.8-28.3 8.9z"/>
  <g id="body">
    <path class="st2" d="M447.9 502.1c2.1 151.7-108.3 167-216.5 167S9.7 663.8 9.7 510.9C9.6 358 85 242.9 231.3 241c146.4-1.9 214.5 109.4 216.6 261.1z"/>
    <path class="st0" d="M260.4 670.4c42.4-9.2 48.7-87.7 53.9-185.2 5.1-96 98.2-176.1 63.1-176.1s-164 15.7-164 111.8c0 0-14.3 262.8 47 249.5z"/>
    <path class="st0" d="M195.6 671.5c-34.2-7.7-40.6-95.6-53.3-191-12-90-90.1-177.2-55.1-177.2 35.1 0 145.7 12 151.4 87.7 5.7 75.8 22.9 295.5-43 280.5z"/>
    <path class="st3" d="M279.4 689.8c-31.7 2-56.6-9-59.6-32.6-3-23.7 22.3-49.4 27.4-24.1-24.9-16.5 39.2-29.2 27.6-3.8-13.9-25 49.7-18.9 31.9 0 6.6-27.1 35.6 8.4 30 29.4-6.7 25-25.7 29.1-57.3 31.1z"/>
    <path class="st3" d="M172.2 688.1c31.6 2.1 56.6-8.7 59.8-32.4 3.1-23.6-22.1-49.5-27.3-24.3 25-16.4-39.1-29.4-27.6-3.9 14-24.9-49.6-19.2-31.9-.1-6.5-27.2-35.6 8.2-30.1 29.3 6.4 25.1 25.4 29.3 57.1 31.4zM80 331.2c3.5 9.5 1.2 28.9 4.3 32.7 3 3.7 31.5-30 43-20.6 10.7 8.7 1.7 55.9 12.9 64.5 10.1 7.7 32.1-50.6 52.5-38.7 24.9 14.6 34.1 49.9 49 49.9 18.3 0 7.5-49.5 24.1-53.3 16.6-3.8 46.1 52.6 60.2 45.6 4.8-2.4 3-50.4 12-57.6 8.7-6.9 30.5 22.4 33.5 18.9 3.7-4.1.1-23.1 8.6-36.1 3.4-5.2 18.9-2.6 28.8-.4 3 .7 5.3-2.6 3.7-5.2-19.6-30.8-100-147.4-184.2-147.4-93.3 0-150.9 86.8-178.1 141.6-1.2 2.5.9 5.4 3.6 4.9 9.1-1.6 24.5-3.4 26.1 1.2z"/>
  </g>
  <g id="head">
    <path class="st4" d="M367 231.1c5.7 36.1-4.7 71-97.8 85.6-93.1 14.6-184-18.5-189.7-54.5-5.7-36.1 16.7-17.3 109.8-31.9 93.1-14.6 172-35.3 177.7.8"/>
    <path class="st0" d="M362.5 229.5C339.7 279 273.1 299.4 225 300c-60.6.7-134.7-29.5-153.5-86.4-25.9-78.2 60.7-181 153.5-177.8 96.1 3.4 171.7 119.4 137.5 193.7"/>
    <path class="st5" d="M362.5 229.5C339.7 279 273.1 299.4 225 300c-60.6.7-134.7-29.5-153.5-86.4-25.9-78.2 60.7-181 153.5-177.8 96.1 3.4 171.7 119.4 137.5 193.7z"/>
    <path class="st0" d="M92.7 117c-2.6 4.7-14.7-16.1-16.5-45-3.3-27.7 3.7-63.4 5.4-62-.9-2 35.4 0 61.4 10 27.5 8.9 44.7 25.7 39.5 27.1-30 23.4-59.9 46.6-89.8 69.9"/>
    <path class="st6" d="M105.8 106.9C103.9 110.3 95.3 95.5 94 75c-2.3-19.6 2.6-44.9 3.8-44-.6-1.4 25.1 0 43.6 7.1 19.5 6.3 31.7 18.2 28 19.2-21.2 16.6-42.4 33.1-63.6 49.6"/>
    <path class="st2" d="M338.4 142.5c-2.2 3.3 19.4 19.6 17.2 23.2-2.1 3.5-24.3-7.8-25.8-5.2-1.9 3.3 33.4 24.1 31 29.2-2.3 4.9-34-14.4-84.3-18.1-4.9-.4-10.3-.9-16.4-2.1-6.5-1.3-11.2-3-13.7-3.9-19.8-6.9-27.7-10.6-32.7-12-19.3-5.7-26.8 11.3-68.1 22.4-18.8 5-37.9 9.7-54.4 0-2.1-1.3-13.6-8.3-16.7-21.1-.9-3.6-2.8-15.2 10.5-34C146.3 34.3 216.5 34 217.3 34c21.1.1 40.8 5.5 58.4 14.3-7.6 4.9-11.2 9.5-9 10.1 21.5 16.5 43.1 33 64.6 49.5.9 1.7 3.6-1.3 6.3-7.3 19.3 30.5 22.1 41.5 18.9 44.3-3.8 3.6-16.4-4.8-18.1-2.4"/>
    <path class="st2" d="M344.9 119.9c2.6 4.7 14.7-16.1 16.5-45 3.3-27.7-3.7-63.4-5.4-62 .9-2-35.4 0-61.4 10-27.5 8.9-44.7 25.7-39.5 27.1 29.9 23.3 59.8 46.6 89.8 69.9"/>
    <path class="st6" d="M343.5 76.2c-.7 10.1-3.1 18.8-5.6 24.6-15.1-20.3-36-39.8-61-52.4 4.9-3.2 11.5-6.6 19.2-9.1 18.5-7.1 44.2-8.5 43.6-7.1 1.2-.9 6.1 24.4 3.8 44"/>
    <path class="st7" d="M205.1 201.8l-10.6-18.3c-3.4-6 .9-13.4 7.7-13.4h21.2c6.9 0 11.2 7.5 7.7 13.4l-10.6 18.3c-3.4 5.9-12 5.9-15.4 0"/>
    <path class="st6" d="M194.2 175.1c-1.2 2.5-1.3 5.6.3 8.4l10.6 18.3c3.4 6 12.1 6 15.5 0l8.7-15c-5.8-6.2-19.3-10.1-35.1-11.7"/>
    <path class="st8" d="M166.7 260.4c-24.4 0-44.1-25-44.1-55.9m88.2 0c0 30.9-19.7 55.9-44.1 55.9m89.9 0c24.4 0 44.1-25 44.1-55.9m-88.2 0c0 30.9 19.7 55.9 44.1 55.9"/>
    <path class="st9" d="M300.7 204.5c0 11.9-2.9 23-8 32"/>
    <path class="st10" d="M188.7 198.4c0-12.9-72.7-23.3-162.6-23.3m162.6 36.2c0-7.1-65.8-12.9-147.1-12.9m196 1.3c1.4-12.8 74.8-15.6 164.1-6.2m-165.4 19c.7-7.1 66.8-5.9 147.6 2.6"/>
    <path class="st4" d="M125.1 123.6c1.5-6 9.6-9.6 20.1-9.8 4.8-.1 10.2.5 15.7 1.9 4.7 1.2 8.9 3.5 12.5 6.2 9.8 7.4 15.2 17.8 15.2 17.8"/>
    <path class="st11" d="M125.1 123.6c1.5-6 9.6-9.6 20.1-9.8 4.8-.1 10.2.5 15.7 1.9 4.7 1.2 8.9 3.5 12.5 6.2 9.8 7.4 15.2 17.8 15.2 17.8"/>
    <path class="st4" d="M188.6 141.5s-18.3 12.3-35.8 7.9c-17.6-4.5-30-15.2-27.7-24 1.5-6 9.6-9.6 20.2-9.8 4.8-.1 10.2.5 15.7 1.9 4.7 1.2 8.9 3.5 12.5 6.2 9.7 7.4 15.1 17.8 15.1 17.8"/>
    <path class="st12" d="M172.9 124.3c-2.3 9.2-10.7 15-18.7 13s-12.5-11.1-10.2-20.4c.3-1.1.7-2.2 1.1-3.1 4.8-.1 10.2.5 15.7 1.9 4.7 1.2 8.9 3.5 12.5 6.2 0 .9-.2 1.7-.4 2.4"/>
    <path class="st13" d="M124.9 121.5c-7.6 2.6-17.1-4.7-21.1-16.3m33.6 9.5c-7.5 2.9-17.3-4-21.7-15.5m36.7 14.6c-8.1-.1-14.5-10.2-14.3-22.6"/>
    <path class="st4" d="M304.5 124.4c-1.7-6-9.8-9.4-20.3-9.4-4.8 0-10.2.7-15.6 2.2-4.7 1.3-8.8 3.7-12.4 6.4-9.6 7.6-14.9 18.1-14.9 18.1"/>
    <path class="st11" d="M304.5 124.4c-1.7-6-9.8-9.4-20.3-9.4-4.8 0-10.2.7-15.6 2.2-4.7 1.3-8.8 3.7-12.4 6.4-9.6 7.6-14.9 18.1-14.9 18.1"/>
    <path class="st4" d="M241.4 143.6s18.5 11.9 36 7.1c17.5-4.8 29.6-15.8 27.2-24.6-1.7-6-9.8-9.4-20.3-9.4-4.8 0-10.2.7-15.6 2.2-4.7 1.3-8.8 3.7-12.4 6.4-9.7 7.7-14.9 18.3-14.9 18.3"/>
    <path class="st12" d="M256.7 126.1c2.5 9.2 11 14.8 18.9 12.6 7.9-2.2 12.3-11.4 9.8-20.6-.3-1.1-.7-2.1-1.2-3.1-4.8 0-10.2.7-15.6 2.2-4.7 1.3-8.8 3.7-12.4 6.4.1 1 .2 1.7.5 2.5"/>
    <path class="st13" d="M302.9 122.3c7.7 2.5 17-5 20.8-16.8M292 115.7c7.6 2.8 17.2-4.4 21.4-16M277 115.1c8.1-.3 14.3-10.5 13.9-22.8"/>
    <path class="st14" d="M156.8 122c0 3.6-2.6 6.4-5.8 6.4-3.2 0-5.8-2.9-5.8-6.4 0-3.6 2.6-6.4 5.8-6.4 3.2 0 5.8 2.9 5.8 6.4m114.3 5.1c0 3.6-2.6 6.5-5.8 6.5-3.2 0-5.8-2.9-5.8-6.5s2.6-6.4 5.8-6.4c3.2 0 5.8 2.9 5.8 6.4"/>
  </g>
</svg>
